<svg xmlns="http://www.w3.org/2000/svg" viewBox="0 0 515.22 668.71"><defs><style>.cls-1{fill:#fff;}.cls-2{fill:none;stroke:#fff;stroke-miterlimit:10;}</style></defs><g id="Layer_2" data-name="Layer 2"><g id="Layer_1-2" data-name="Layer 1"><path class="cls-1" d="M1.15,40.36H49.27v142H100v-142h48.63V0H1.15Zm253.27,30L222.34,0h-58l64.16,124.44v57.95h51V124.44L343.67,0H286.5ZM445.34,0h-75.8V182.39h50.7V120.82h25.1c46.31,0,68.3-28.2,68.3-60C513.64,25.61,490.61,0,445.34,0Zm-4.92,80.46H420.24V40.88h20.18c15.27,0,21.47,7.76,21.47,19.92C461.89,72.7,455.69,80.46,440.42,80.46Z"/><polygon class="cls-2" points="77.16 347.36 95.54 267.13 113.56 347.36 158.32 347.36 190.45 216.42 151.08 216.42 135.85 305.2 115.79 216.42 75.86 216.42 55.24 305.94 40.01 216.42 0.64 216.42 32.4 347.36 77.16 347.36"/><rect class="cls-2" x="213.29" y="216.42" width="36.4" height="130.94"/><polygon class="cls-2" points="305.22 347.36 341.63 347.36 341.63 245.39 376.54 245.39 376.54 216.42 270.68 216.42 270.68 245.39 305.22 245.39 305.22 347.36"/><polygon class="cls-2" points="433.93 294.8 478.32 294.8 478.32 347.36 514.72 347.36 514.72 216.42 478.32 216.42 478.32 265.64 433.93 265.64 433.93 216.42 397.52 216.42 397.52 347.36 433.93 347.36 433.93 294.8"/><path class="cls-2" d="M165.1,547c0,29.21-14,47.61-43.62,47.61S78.67,576.18,78.67,547V383.3H.64V547c0,80.43,51.22,121.24,119.24,121.24,67.63,0,123.65-40.81,123.65-121.24V383.3H165.1Z"/><path class="cls-2" d="M378.79,460.93c0-13.6,9.2-20.41,20.8-20,14.41,0,25.21,8,26,25.61h85.24c-2.8-56-45.22-87.63-110-87.63-59.63,0-105.65,29.61-105.65,84.83-1.2,98,135.66,76.83,136.06,122,0,13.21-10.81,20.41-24.81,20.41-14.41,0-26.81-7.2-28.41-28.41H294.35c3.21,60.42,52,90.43,114.85,90.43,66.82,0,105.24-38.81,105.24-88.43C514.44,489.34,378.79,503,378.79,460.93Z"/></g></g></svg>