<svg xmlns="http://www.w3.org/2000/svg" viewBox="0 0 846 282"><defs><style>.cls-1{fill:#fff;}</style></defs><g id="Layer_2" data-name="Layer 2"><g id="Layer_1-2" data-name="Layer 1"><rect width="846" height="282"/><path class="cls-1" d="M77,123.28,187.74,67.19v31l-79.55,38.68,79.55,39.9v30.95L77,150.61Z"/><path class="cls-1" d="M208.05,218.07,275,36.72H303.8L237.07,218.07Z"/><path class="cls-1" d="M308.39,80.49h19.35V46.64h34.57V80.49H387V106.6H362.31v61.9c0,9.43,2.9,13.06,13.3,13.06,1.93,0,5.32,0,7.74-.25V205c-6.77,2.42-16.2,2.42-23.21,2.42-24.43,0-32.4-13.06-32.4-35.06V106.6H308.39Z"/><path class="cls-1" d="M427.83,80.49C440.65,123.77,452,162.21,454,173.82h.24c2.66-12.57,10.15-40.62,24.9-93.33h34.58L471.6,209.36c-11.85,36-22,46.67-52,46.67a155.42,155.42,0,0,1-16.2-1V227.25c2.42.25,6,.49,8.95.49,12.81,0,19.1-4.35,23.94-18.14L390.6,80.49Z"/><path class="cls-1" d="M524.55,253.61V110.71c0-10.15,0-20.07-.24-30.22h33.61a144.46,144.46,0,0,1,1.21,15.71c5.31-9.18,16.44-18.61,36.26-18.61,28.29,0,49.81,23.69,49.81,62.38,0,44.24-24.18,68.67-54.4,68.67-17.65,0-26.84-6.77-31.67-14v59Zm59.72-148.22c-19.58,0-26.6,12.82-26.6,38,0,23.94,6.53,37.72,25.15,37.72,18.38,0,27.32-14.26,27.32-39.65C610.14,118.45,601,105.39,584.27,105.39Z"/><path class="cls-1" d="M776.25,151.57l-110.74,56.1V176.72l79.55-38.93L665.51,98.14V67.19l110.74,57.06Z"/></g></g></svg>